<?xml version="1.0" standalone="no"?>
<!DOCTYPE svg PUBLIC "-//W3C//DTD SVG 1.1//EN" "http://www.w3.org/Graphics/SVG/1.1/DTD/svg11.dtd" >
<!--
2013-9-30: Created.
-->
<svg>
<metadata>
Created by iconfont
</metadata>
<defs>

<font id="iconfont" horiz-adv-x="1024" >
  <font-face
    font-family="iconfont"
    font-weight="500"
    font-stretch="normal"
    units-per-em="1024"
    ascent="896"
    descent="-128"
  />
    <missing-glyph />
    
    <glyph glyph-name="caidan" unicode="&#58927;" d="M199.68 595.968m-49.152 0a4.8 4.8 0 1 0 98.304 0 4.8 4.8 0 1 0-98.304 0ZM402.432 552.96 829.44 552.96c23.552 0 44.032 19.456 44.032 44.032S852.992 640 829.44 640L402.432 640c-23.552 0-44.032-19.456-44.032-44.032S377.856 552.96 402.432 552.96zM199.68 384m-49.152 0a4.8 4.8 0 1 0 98.304 0 4.8 4.8 0 1 0-98.304 0ZM829.44 427.008 402.432 427.008c-23.552 0-44.032-19.456-44.032-44.032s19.456-44.032 44.032-44.032L829.44 338.944c23.552 0 44.032 19.456 44.032 44.032S852.992 427.008 829.44 427.008zM199.68 171.008m-49.152 0a4.8 4.8 0 1 0 98.304 0 4.8 4.8 0 1 0-98.304 0ZM829.44 215.04 402.432 215.04c-23.552 0-44.032-19.456-44.032-44.032s19.456-44.032 44.032-44.032L829.44 126.976c23.552 0 44.032 19.456 44.032 44.032S852.992 215.04 829.44 215.04z"  horiz-adv-x="1024" />

    
    <glyph glyph-name="ai44" unicode="&#59042;" d="M511.999488 643.538081c-174.547385 0-324.652078-108.241236-384.02942-261.84973 59.377342-153.60747 209.481012-261.84973 384.02942-261.84973 174.551478 0 324.70529 108.241236 384.02942 261.84973C836.703755 535.297868 686.550966 643.538081 511.999488 643.538081M511.999488 207.137897c-97.731882 0-174.547385 76.767408-174.547385 174.550455 0 97.782024 76.815503 174.551478 174.547385 174.551478 97.785094 0 174.551478-76.769454 174.551478-174.551478C686.550966 283.905304 609.784582 207.137897 511.999488 207.137897M511.999488 486.426811c-59.32413 0-104.737436-45.413306-104.737436-104.738459 0-59.328223 45.413306-104.739483 104.737436-104.739483 59.377342 0 104.740506 45.412282 104.740506 104.739483C616.739994 441.013505 571.376831 486.426811 511.999488 486.426811"  horiz-adv-x="1024" />

    
    <glyph glyph-name="yuandian" unicode="&#59330;" d="M858.3 584.8C894 523.5 912 456.6 912 384s-17.9-139.5-53.7-200.8C822.5 122 774 73.4 712.8 37.7S584.6-16 512-16s-139.5 17.9-200.8 53.7c-61.2 35.7-109.7 84.2-145.6 145.6C129.9 244.5 112 311.4 112 384c0 72.5 17.9 139.4 53.7 200.8 35.7 61.2 84.2 109.7 145.6 145.6C372.5 766 439.4 784 512 784c72.5 0 139.4-17.9 200.8-53.7C774 694.5 822.5 646 858.3 584.8z m-204.1 44.4c-43.4 25.3-90.8 38-142.2 38s-98.8-12.7-142.2-38-77.8-59.7-103.1-103.1-38-90.8-38-142.2c0-51.4 12.7-98.8 38-142.2s59.7-77.8 103.1-103.1c43.4-25.3 90.8-38 142.2-38s98.8 12.7 142.2 38c43.4 25.3 77.8 59.7 103.1 103.1 25.3 43.4 38 90.8 38 142.2s-12.7 98.8-38 142.2c-25.4 43.4-59.8 77.8-103.1 103.1z m-47.9-151c26.1-26.1 39.1-57.5 39.1-94.3s-13-68.2-39.1-94.3c-26.1-26.1-57.5-39.1-94.3-39.1s-68.2 13-94.3 39.1c-26.1 26.1-39.1 57.5-39.1 94.3s13 68.2 39.1 94.3c26.1 26.1 57.5 39.1 94.3 39.1s68.2-13 94.3-39.1z"  horiz-adv-x="1024" />

    
    <glyph glyph-name="yincang" unicode="&#59531;" d="M972.8 301.056l51.2 88.576-135.68 77.312c10.752 8.192 21.504 16.896 31.744 26.112a611.328 611.328 0 0 1 102.4 118.784l-85.504 56.32a512 512 0 0 0-84.992-98.816A505.856 505.856 0 0 0 512 438.784a505.856 505.856 0 0 0-336.896 128.512A512 512 0 0 0 89.6 665.6L4.608 608.768a614.4 614.4 0 0 1 102.4-117.76c9.216-8.192 18.432-15.36 28.16-22.528L0 390.144l51.2-88.576 180.224 102.4a606.72 606.72 0 0 1 57.344-26.624l-105.472-181.248 88.576-51.2 117.76 204.8a607.744 607.744 0 0 1 70.656-10.24V128h102.4v210.944a608.768 608.768 0 0 1 66.56 9.216l117.248-204.8 88.576 51.2-102.4 180.736a607.232 607.232 0 0 1 60.416 27.648z"  horiz-adv-x="1024" />

    
    <glyph glyph-name="baocun" unicode="&#58983;" d="M674.5000001 834H146.4999998C99.8 834 62 796.2 62 749.5000001999999v-731.0000004C62-28.200000000000045 99.8-66 146.4999998-66h731.0000004c46.6999998 0 84.49999981 37.8 84.4999998 84.49999981V546.6500003900001L674.5000001 834zM297.7499999 749.5000001999999h254.59999981v-241.59999991a42.1999998 42.1999998 0 0 0-42.24999991-42.2499999H339.99999981a42.1999998 42.1999998 0 0 0-42.24999991 42.2499999V749.5000001999999zM877.5000002 18.499999799999955H146.4999998V749.5000001999999h66.7500003v-241.59999991A126.7999998 126.7999998 0 0 1 339.99999981 381.1999998h170.1a126.7999998 126.7999998 0 0 1 126.75000058 126.70000049V749.5000001999999h2.7l237.84999961-237.85000049v-493.1499999h0.1000002zM461.9999999 550.1500002a42.1999998 42.1999998 0 0 1 42.2499999 42.2499999v50.50000019a42.1999998 42.1999998 0 1 1-84.4999998 0v-50.50000019c0-23.3499999 18.9-42.2499999 42.2499999-42.24999991z"  horiz-adv-x="1024" />

    
    <glyph glyph-name="guanbi" unicode="&#58984;" d="M494.242635 486.942118L885.711812 878.351059a60.235294 60.235294 0 0 0 85.172706-85.172706L579.475576 401.769412l391.408942-391.469177a60.235294 60.235294 0 0 0-85.172706-85.172706L494.242635 316.536471l-391.408941-391.408942a60.235294 60.235294 0 0 0-85.172706 85.172706L409.009694 401.769412 17.660988 793.178353A60.235294 60.235294 0 0 0 102.833694 878.351059L494.242635 487.002353z"  horiz-adv-x="1024" />

    
    <glyph glyph-name="chaxun" unicode="&#58985;" d="M1011.982178-57.711842l-235.075658 235.026897A437.042755 437.042755 0 0 1 877.695025 457.153097a438.846903 438.846903 0 0 1-438.846903 438.846903 438.846903 438.846903 0 0 1-438.846903-438.846903 438.846903 438.846903 0 0 1 438.846903-438.846903 437.042755 437.042755 0 0 1 279.886803 100.788505l235.026897-235.026897a41.202848 41.202848 0 0 1 58.269116 0 41.446652 41.446652 0 0 1-0.04876 58.220356z m-434.409674 186.26613c-43.88469-18.577852-90.499984-27.939919-138.724382-27.939919a355.758556 355.758556 0 0 0-252.093165 104.445562A355.758556 355.758556 0 0 0 82.260633 457.153097 355.758556 355.758556 0 0 0 186.754957 709.246262 355.758556 355.758556 0 0 0 438.848122 813.740586a355.758556 355.758556 0 0 0 252.093166-104.445563A355.758556 355.758556 0 0 0 795.435611 457.153097a355.758556 355.758556 0 0 0-104.445563-252.093166 354.490776 354.490776 0 0 0-113.417544-76.456882z"  horiz-adv-x="1024" />

    
    <glyph glyph-name="guanliyuan" unicode="&#58986;" d="M512 384a225 225 0 1 0 0 450 225 225 0 0 0 0-450z m0 112.50000001a112.50000001 112.50000001 0 1 1 0 224.99999998 112.50000001 112.50000001 0 0 1 0-224.99999998z m-281.25-506.25000001a56.24999999 56.24999999 0 1 0-112.5 0v112.5a225 225 0 0 0 225 224.99999999h337.5a225 225 0 0 0 225-224.99999999v-112.5a56.24999999 56.24999999 0 1 0-112.5 0v112.5a112.50000001 112.50000001 0 0 1-112.5 112.5H343.25a112.50000001 112.50000001 0 0 1-112.5-112.5v-112.5z"  horiz-adv-x="1024" />

    
    <glyph glyph-name="fuzhi" unicode="&#58987;" d="M416.27259258 324V414a30 30 0 0 0 60.00000001 0V324H566.27259259a30 30 0 0 0 0-60.00000001H476.27259259v-89.99999999a30 30 0 0 0-60.00000001 0V263.99999999H326.27259259a30 30 0 0 0 0 60.00000001h89.99999999zM176.51259259 670.8a30.30000001 30.30000001 0 0 0-0.24000001 3.72A150 150 0 0 0 326.27259259 824.52h480a150 150 0 0 0 150-150v-480a150 150 0 0 0-150-150 30.30000001 30.30000001 0 0 0-3.72 0.24A120.00000001 120.00000001 0 0 0 686.27259259-45.48000000000002H206.27259259a120.00000001 120.00000001 0 0 0-120 120v480A120.00000001 120.00000001 0 0 0 176.51259259 670.8zM806.27259259 104.51999999999998a90 90 0 0 1 89.99999999 90v480a90 90 0 0 1-89.99999999 90H326.27259259a90 90 0 0 1-90-90H686.27259259a120.00000001 120.00000001 0 0 0 120-120v-450z m-600 510a60 60 0 0 1-60-60v-480a60 60 0 0 1 60-60h480a60 60 0 0 1 60 60v480a60 60 0 0 1-60 60H206.27259259z"  horiz-adv-x="1024" />

    
    <glyph glyph-name="fenpeijiaose" unicode="&#58988;" d="M676.37442124 422.49688594c8.22575719 7.95156469 20.5643925 15.90313031 28.7901497 27.89902593 49.35454219 55.8666 69.91893469 127.63633031 57.58029936 203.38184251C746.29335689 761.53517156 659.92290781 845.23224937 548.87518719 861.20392782 458.39186 873.13127626 372.02141094 841.2564675 314.44111156 777.43830188c-45.24166406-59.84238281-69.91893469-131.61211313-57.58029937-203.38184249 12.33863531-59.84238281 41.128785-111.7332 90.48332812-151.55957345-143.95074844-47.84648719-246.77271094-179.45859938-246.77271188-331.08672094v-87.74140875C100.57142845-52.129295609999986 145.8130925-96 203.39339188-96h616.93177781c57.58029937 0 102.82196345 43.87070437 102.82196344 99.73730438v87.74140781c0 151.49102531-102.82196345 283.10313844-246.77271189 331.01817375z m-128.80164561-29.47563001l107.20903406-35.64494718C773.5069025 318.02977124999995 854.59915719 210.75219001000005 854.59915719 91.47871219000001v-87.74140782c0-17.47973344-14.12088281-31.12078125-34.2739875-31.12078124h-616.93177781c-20.15310469 0-34.27398749 13.709595-34.27398751 31.18932937v87.74140781c0 119.13638156 81.09225469 226.48251094 199.81734751 265.96614469l118.99928531 39.55218187-97.47522094 78.83017125c-35.16511125 28.37886188-56.82627187 65.2576725-66.49153594 112.07593969-7.8830175 46.06423969 8.0201128 99.05182406 45.17311594 148.20072281 39.07234594 42.9110325 103.23325125 66.08024812 170.68445812 57.10046343 80.749515-11.58460781 143.26526812-72.24956625 155.12406844-149.77732593 9.18542906-56.00369625-5.3467425-107.14048594-41.128785-147.65233876l-5.14109812-6.5120578-3.01611094-2.67337123c2.19353531 1.85079563-12.20154-10.28219625-16.99989749-14.87491034L547.50422845 393.08980406z"  horiz-adv-x="1024" />

    
    <glyph glyph-name="weixuanzhong" unicode="&#58989;" d="M249.75034747 779.5078125h527.3437495a131.83593775 131.83593775 0 0 0 131.83593775-131.83593775v-527.3437495a131.83593775 131.83593775 0 0 0-131.83593775-131.83593775H249.75034747a131.83593775 131.83593775 0 0 0-131.83593775 131.83593775V647.67187475a131.83593775 131.83593775 0 0 0 131.83593775 131.83593775z m0-65.9179685a65.9179685 65.9179685 0 0 1-65.91796925-65.91796925v-527.3437495a65.9179685 65.9179685 0 0 1 65.91796925-65.91796925h527.3437495a65.9179685 65.9179685 0 0 1 65.91796925 65.91796925V647.67187475a65.9179685 65.9179685 0 0 1-65.91796925 65.91796925H249.75034747z"  horiz-adv-x="1024" />

    
    <glyph glyph-name="tianjia" unicode="&#58990;" d="M949.60555546 427.94999971H576.35555595V791.80000019a42.14999971 42.14999971 0 1 1-84.40000049 0V427.9999998h-365.0000001a42.14999971 42.14999971 0 1 1-1e-8-84.39999961h365.00000011v-365.00000009a42.14999971 42.14999971 0 1 1 84.40000049 0v365.00000009h373.24999951a42.14999971 42.14999971 0 1 1 0 84.39999961z"  horiz-adv-x="1080" />

    
    <glyph glyph-name="xitongcaidan-xiala" unicode="&#58991;" d="M480.65361021 641.79075622a69.52285766 69.52285766 0 1 1-98.44436645-98.44436645l417.13714599-417.137146a69.52285766 69.52285766 0 0 1 98.44436646 0l417.13714599 417.137146a69.52285766 69.52285766 0 1 1-98.44436646 98.44436646L848.56857298 273.73674773000005 480.65361021 641.79075622z"  horiz-adv-x="1638" />

    
    <glyph glyph-name="shanchu" unicode="&#58992;" d="M475.07692345 702.14017086V812.9094014899999a36.92307655 36.92307655 0 0 0 73.8461531 0v-110.76923063h369.23076939a36.92307655 36.92307655 0 0 0 0-73.84615406H105.84615406a36.92307655 36.92307655 0 0 0 0 73.84615406h369.23076937z m-295.38461533-147.69230718a36.92307655 36.92307655 0 0 0 73.84615313 0v-516.9230775a36.92307655 36.92307655 0 0 1 36.9230775-36.92307657h443.0769225a36.92307655 36.92307655 0 0 1 36.9230775 36.92307657v516.9230775a36.92307655 36.92307655 0 0 0 73.84615313 0v-516.9230775A110.76923063 110.76923063 0 0 0 733.53846125-73.24444444999995H290.46153875a110.76923063 110.76923063 0 0 0-110.76923063 110.76923064v516.92307749zM585.84615406 517.52478619a36.92307655 36.92307655 0 0 0 73.84615407 0v-369.23076939a36.92307655 36.92307655 0 0 0-73.84615407 0V517.52478619zM364.30769187 517.52478619a36.92307655 36.92307655 0 0 0 73.84615407 0v-369.23076939a36.92307655 36.92307655 0 0 0-73.84615407 0V517.52478619z"  horiz-adv-x="1024" />

    
    <glyph glyph-name="zhuxiao" unicode="&#58993;" d="M287.27432184 709.4796642599999A46.5303308 46.5303308 0 0 0 340.22583861 632.93727058a302.44715092 302.44715092 0 1 1 317.84869015 15.95990282 46.5303308 46.5303308 0 1 0 44.99483042 81.47460938 397.13637385 397.13637385 0 0 0 154.80641045-154.3876372A395.5078125 395.5078125 0 1 0 287.27432184 709.4796642599999zM465.48548953 732.9774817a46.5303308 46.5303308 0 0 0 93.06066158 1e-8v-325.71231632a46.5303308 46.5303308 0 0 0-93.06066159 0V732.9774817z"  horiz-adv-x="1024" />

    
    <glyph glyph-name="xitongjiankong" unicode="&#58994;" d="M933.67466698-54.35733332999996H109.67466636a35.96800031 35.96800031 0 0 0-36.03199969 36.03199969V806.63466698a35.96800031 35.96800031 0 1 0 72 0V17.706666980000023h788.03200031a35.96800031 35.96800031 0 1 0 0-72z m-537.984 217.02400031a35.83999969 35.83999969 0 0 0-30.08000062 16.32L208.49066698 428.97066698a35.83999969 35.83999969 0 1 0 60.15999938 39.42399938L381.22666667 286.44266667l45.63199969 177.28000031a36.03199969 36.03199969 0 0 0 19.2 23.35999969l181.95200062 88.00000031a36.03199969 36.03199969 0 0 0 46.33599938-13.50400031l91.52000062-148.28800031L899.43466667 816.93866667a36.03199969 36.03199969 0 0 0 68.352-22.59199969l-158.016-476.99200031a35.83999969 35.83999969 0 0 0-64.76800031-7.488l-115.008 186.24-137.664-66.624-61.824-239.808a35.96800031 35.96800031 0 0 0-34.87999969-27.00799969z"  horiz-adv-x="1024" />

    
    <glyph glyph-name="xuanzhong" unicode="&#58995;" d="M248.32812525 779.5078125h527.3437495a131.83593775 131.83593775 0 0 0 131.83593775-131.83593775v-527.3437495a131.83593775 131.83593775 0 0 0-131.83593775-131.83593775H248.32812525a131.83593775 131.83593775 0 0 0-131.83593775 131.83593775V647.67187475a131.83593775 131.83593775 0 0 0 131.83593775 131.83593775z m89.25292944-372.17285156a32.95898463 32.95898463 0 1 1-46.66992188-46.66992188l131.83593776-131.83593775a32.95898463 32.95898463 0 0 1 46.66992187 0l263.67187475 263.67187551a32.95898463 32.95898463 0 1 1-46.66992188 46.66992187L446.0820315 298.76806640999996 337.58105469 407.33496094z"  horiz-adv-x="1024" />

    
    <glyph glyph-name="xitongguanli" unicode="&#58996;" d="M926.45 732.36428584l-167.27142832-166.95-68.14285752 68.01428584L857.85714248 799.86428584a220.17857168 220.17857168 0 0 1-271.8-31.05 219.21428584 219.21428584 0 0 1-56.89285664-212.14285752L339.32857168 366.9a219.72857168 219.72857168 0 0 1-243.57857168-328.30714248l166.62857168 166.43571415 68.14285664-68.01428583-167.27142832-166.95a220.24285752 220.24285752 0 0 1 274.69285752 29.12142832 219.21428584 219.21428584 0 0 1 56.89285664 212.14285752l189.83571416 189.5785708a219.72857168 219.72857168 0 0 1 241.71428584 331.45714336zM394.29285752 42.96428584c-31.5-31.43571416-73.02857167-46.8-114.3-46.09285752l95.4 95.33571416a61.71428584 61.71428584 0 0 1 0 87.42857168l-68.14285752 67.95a61.77857167 61.77857167 0 0 1-87.42857167 0L124.35714248 152.25A158.07857168 158.07857168 0 0 0 422.9 227.14285752c30.85714248-59.46428584 21.21428584-134.29285752-28.60714248-184.11428585z m73.92857081 229.24285664a219.40714248 219.40714248 0 0 1-68.14285665 68.01428584l155.7 155.44285752a219.40714248 219.40714248 0 0 1 68.14285664-67.95L468.22142832 272.14285752z m385.19999999 229.30714336a158.07857168 158.07857168 0 0 0-223.58571416 223.39285664A157.43571416 157.43571416 0 0 0 744.07142832 771L648.73571416 675.72857168a61.71428584 61.71428584 0 0 1 0-87.42857168l68.07857168-68.01428584a61.77857167 61.77857167 0 0 1 87.42857168 0l95.46428496 95.33571416c0.64285752-41.14285752-14.85-82.54285752-46.28571415-114.10714248z"  horiz-adv-x="1024" />

    
    <glyph glyph-name="shuaxin" unicode="&#58997;" d="M587.83184932 16.73017617000005c-119.87383271-24.34937256-249.11280879 9.36514336-340.89121231 101.14354688a371.00951279 371.00951279 0 0 0-28.0954292 496.35258838v-69.30205928c0-20.60331503 16.85725752-37.46057256 37.46057256-37.46057256s37.46057256 16.85725752 37.46057256 37.46057256v149.84229111c0 11.23817168-3.74605752 20.60331503-11.23817168 26.22240088a37.01104628 37.01104628 0 0 1-26.22240088 11.23817169h-149.84229112c-20.60331503 0-37.46057256-16.85725752-37.46057255-37.46057257s16.85725752-37.46057256 37.46057255-37.46057256h52.44480177c-140.47714776-174.19166367-127.36594776-428.9235583 33.71451591-591.87704941 112.38171855-112.38171855 267.84309551-151.71531943 412.0662999-121.74686191a49.0733499 49.0733499 0 0 1 16.85725752 9.36514335c14.9842292 14.9842292 14.9842292 37.46057256 0 52.44480177-7.49211416 11.23817168-22.47634336 14.9842292-33.71451503 11.23817167z m329.65303974 91.77840352h-50.57177343a449.60179394 449.60179394 0 0 1-37.46057256 593.75007773C724.56293955 807.14826182 582.21276347 848.3548919 445.48167237 829.62460518a32.96530371 32.96530371 0 0 1-24.34937169-11.23817169c-14.9842292-14.9842292-14.9842292-37.46057256 0-52.44480175 9.36514336-9.36514336 22.47634336-13.11120088 35.58754336-9.36514336 112.38171855 16.85725752 232.25555127-18.73028672 318.41486895-104.88960351a371.00951279 371.00951279 0 0 0 28.0954292-496.35258927v69.30205928c0 20.60331503-16.85725752 37.46057256-37.46057256 37.46057344s-37.46057256-16.85725752-37.46057256-37.46057344v-149.84229024c0-11.23817168 3.74605752-20.60331503 11.23817168-26.22240175 7.49211416-7.49211416 16.85725752-11.23817168 26.22240088-11.23817168h149.84229112c20.60331503 0 37.46057256 16.85725752 37.46057255 37.46057343s-14.9842292 33.71451503-35.58754424 33.71451505z"  horiz-adv-x="1024" />

    
    <glyph glyph-name="zhongzhimiyue" unicode="&#58998;" d="M247.31250219 125.88651000000004l84.66161812-84.587805a36.90567469 36.90567469 0 1 0-52.18462406-52.25843531l-84.66161719 84.66161719-21.62672531-21.62672532 84.66161719-84.58780593a36.90567469 36.90567469 0 1 0-52.18462406-52.25843532L69.13190656 52.07516155999997l358.2802875 358.2802875a37.20091969 37.20091969 0 0 0 3.91200188 3.39532219 258.33972094 258.33972094 0 1 0 51.66794437-51.66794438 37.20091969 37.20091969 0 0 0-3.39532218-3.98581218L247.31250219 125.88651000000004z m390.68347031 258.33972188a184.5283725 184.5283725 0 1 1 0 369.05674499 184.5283725 184.5283725 0 0 1 0-369.056745z"  horiz-adv-x="1024" />

    
    <glyph glyph-name="xiugai" unicode="&#58999;" d="M158.42774463 351.85356093999997a32.14258154 32.14258154 0 0 0 10.22134131 23.52837041l482.13872402 449.99614248a32.14258154 32.14258154 0 0 0 44.67818848-0.77142217l192.85549013-192.85548926a32.14258154 32.14258154 0 0 0-0.83570713-46.28531777l-482.13872402-449.99614336A32.14258154 32.14258154 0 0 0 383.42581631 126.85549013000002H190.57032617a32.14258154 32.14258154 0 0 0-32.14258154 32.14258155v192.85548926z m64.28516396-160.71290772h148.04873086l448.58186894 418.68926806-147.40587948 147.34159454L222.71290859 337.90368047000004V191.14065322z m-128.57032705-257.14065322a32.14258154 32.14258154 0 0 0 0 64.28516309h899.99228584a32.14258154 32.14258154 0 0 0 0-64.28516309H94.14258154z"  horiz-adv-x="1097" />

    
    <glyph glyph-name="zhuye" unicode="&#59000;" d="M962.42 458.76L563.72 842.46a77.04 77.04 0 0 1-103.38 0L61.58 458.76a38.52 38.52 0 1 1 51.6-57.24L512 785.28l398.76-383.64a38.52 38.52 0 1 1 51.6 57.24h0.06z m-106.5-142.26a38.52 38.52 0 0 1-38.58-38.58v-296.76h-153.18V238.20000000000005c0 42.66-34.5 77.16-77.16 77.16h-150c-42.6 0-77.16-34.5-77.16-77.16v-257.1H206.66V277.91999999999996a38.52 38.52 0 1 1-77.16 0v-296.76c0-42.66 34.5-77.16 77.16-77.16h610.68c42.66 0 77.16 34.5 77.16 77.16V277.91999999999996a38.52 38.52 0 0 1-38.58 38.58zM437 238.26h150v-257.1h-150V238.20000000000005z"  horiz-adv-x="1024" />

    
    <glyph glyph-name="inputxiala" unicode="&#59001;" d=""  horiz-adv-x="24395" />

    
    <glyph glyph-name="appguanli" unicode="&#59002;" d="M1088 770.633143L878.518857 891.099429a36.571429 36.571429 0 0 1-36.132571 0L632.905143 770.633143a36.205714 36.205714 0 0 1-18.066286-31.451429v-10.166857l-11.556571 6.582857a36.571429 36.571429 0 0 1-36.059429 0l-11.702857-6.656v10.24a36.498286 36.498286 0 0 1-18.139429 31.451429L327.68 891.099429a36.571429 36.571429 0 0 1-36.059429 0L82.139429 770.633143a36.132571 36.132571 0 0 1-18.139429-31.451429V497.371429c0-12.946286 6.875429-24.868571 18.139429-31.451429l209.554285-120.466286a36.205714 36.205714 0 0 1 36.059429 0l11.702857 6.802286v-10.313143c0-12.946286 6.948571-24.868571 18.139429-31.451428l7.460571-4.169143-7.460571-4.242286a36.352 36.352 0 0 1-18.139429-31.451429v-241.810285c0-12.946286 6.948571-24.868571 18.139429-31.451429l209.481142-120.466286a36.571429 36.571429 0 0 1 36.132572 0l209.481143 120.466286a36.352 36.352 0 0 1 18.139428 31.451429V270.482286a36.498286 36.498286 0 0 1-18.139428 31.451428l-7.460572 4.242286 7.460572 4.242286a36.352 36.352 0 0 1 18.139428 31.451428v10.093715l11.556572-6.582858a36.571429 36.571429 0 0 1 36.132571 0l209.481143 120.539429a36.425143 36.425143 0 0 1 18.285714 31.451429V739.181714a36.205714 36.205714 0 0 1-18.285714 31.451429zM309.76 430.08L146.285714 523.995429V712.557714l163.401143 93.988572L473.234286 712.557714v-30.939428l-115.565715-66.413715a36.352 36.352 0 0 1-18.139428-31.451428v-136.704l-29.769143-16.969143z m163.401143 190.902857v-97.060571l-81.188572-46.665143V574.317714l81.188572 46.592z m275.382857-377.124571v-188.562286L585.142857-38.619429l-163.401143 93.915429V243.858286l25.819429 14.921143 119.515428-68.754286a36.571429 36.571429 0 0 1 36.132572 0l119.515428 68.754286 25.819429-14.921143z m-248.173714 45.348571L585.142857 337.92l84.845714-48.786286L585.142857 240.347429l-84.845714 48.786285z m277.942857 62.171429l-25.746286-14.921143-149.357714 85.796571a36.571429 36.571429 0 0 1-36.132572 0L417.718857 336.457143l-25.746286 14.848v31.085714L537.234286 465.92a36.352 36.352 0 0 1 18.212571 31.451429V668.233143l29.842286 17.115428 29.549714-16.969142v-171.154286c0-12.873143 6.875429-24.868571 18.066286-31.451429l145.408-83.456v-31.012571z m0 125.878857l-81.188572 46.811428V621.056l81.188572-46.738286v-97.133714zM1024 524.068571L860.452571 430.08l-29.622857 16.822857V583.826286a36.352 36.352 0 0 1-17.993143 31.451428L697.051429 681.691429v30.793142l163.474285 93.988572L1024 712.557714v-188.562285z"  horiz-adv-x="1170" />

    
    <glyph glyph-name="apishenji" unicode="&#59003;" d="M901.00268281 773.76453809a204.72351065 204.72351065 0 0 1-289.36139854-1e-8L431.32019961 593.44345342a36.08990332 36.08990332 0 0 1 0-51.30931113c14.25615381-14.25615381 37.2458083-14.25615381 51.24509472 0l180.32108379 180.32108466a132.22261846 132.22261846 0 0 0 225.46557334-93.30717128c0-35.31930117-13.74241904-68.45522695-38.72279706-93.3071713L669.43650342 355.51980058000004a36.08990332 36.08990332 0 0 1 25.68676377-61.77666797c9.31145185 0 18.55868731 3.46771318 25.68676465 10.53157325l180.32108467 180.25686738a204.53085967 204.53085967 0 0 1-0.1284337 289.23296484z m-525.29432783-157.65251484a36.1541206 36.1541206 0 0 1 36.21833789 36.21833701L411.86247558 797.7174457a36.1541206 36.1541206 0 1 1-72.4366749 0v-145.51551914a36.2825543 36.2825543 0 0 1 36.34677159-36.1541206z m433.97788096-477.3885126a35.83303594 35.83303594 0 0 1-25.55833008 10.40313954 36.21833789 36.21833789 0 0 1-25.68676465-61.77666797l102.81127324-102.74705683a36.08990332 36.08990332 0 0 1 51.30931201 0 36.08990332 36.08990332 0 0 1 0 51.24509472l-102.87549052 102.81127325z m114.94826982 146.41455586h-145.51551914a35.51195127 35.51195127 0 0 1-25.49411367-10.78844151 36.08990332 36.08990332 0 0 1 25.49411367-61.84088437l145.38708545 0.12843369a36.1541206 36.1541206 0 0 1 36.21833701 36.21833789 35.96146963 35.96146963 0 0 1-36.15412061 36.21833701zM647.7311876 152.65857978999998a36.1541206 36.1541206 0 0 1-36.21833789-36.21833701l0.12843456-145.38708546a36.1541206 36.1541206 0 1 1 72.43667491 0v145.51551914a36.2825543 36.2825543 0 0 1-36.34677158 36.15412061z m-107.24224043 73.84944726l-180.19265098-180.32108466a131.32358174 131.32358174 0 0 0-93.30717041-38.72279708c-35.31930117 0-68.45522695 13.74241904-93.30717129 38.72279707a131.64466641 131.64466641 0 0 0-0.12843369 186.67855899l180.32108467 180.25686738a36.08990332 36.08990332 0 0 1 0 51.30931201 36.08990332 36.08990332 0 0 1-51.30931113 0L122.24420967 284.36746347999997a203.24652187 203.24652187 0 0 1-59.97859454-144.68069971c0-54.58437422 21.25579746-106.02211904 59.97859454-144.55226514a203.95290762 203.95290762 0 0 1 144.61648242-59.91437725c52.40099883 0 104.86621494 19.90724239 144.61648154 59.91437726l180.38530195 180.19265097a36.08990332 36.08990332 0 0 1 0 51.24509472 36.41098799 36.41098799 0 0 1-51.37352841 0zM213.81752393 630.1755260699999c7.19229375-7.06386006 16.24687822-10.53157325 25.55833008-10.46735595a36.21833789 36.21833789 0 0 1 25.68676464 61.84088438L162.18712724 784.16767763a36.08990332 36.08990332 0 0 1-51.24509384 0 36.08990332 36.08990332 0 0 1 0-51.24509472l102.87549053-102.74705684zM98.86925411 483.63253652H244.44898964a35.51195127 35.51195127 0 0 1 25.49411369 10.78844062 36.08990332 36.08990332 0 0 1-25.49411368 61.77666798l-145.38708457-0.12843369a36.1541206 36.1541206 0 0 1-36.21833789-36.21833701 35.89725323 35.89725323 0 0 1 36.08990332-36.21833789z"  horiz-adv-x="1024" />

    
    <glyph glyph-name="yonghumingtubiao" unicode="&#59004;" d="M504.28901885 365.81493662a234.54233877 234.54233877 0 0 0-233.89975723 234.28530615 233.96401582 233.96401582 0 0 0 467.79951445 1e-8A234.09253213 234.09253213 0 0 0 504.28901885 365.81493662zM153.11809268-66C138.2101956-66 126.45094941-50.89932891000001 126.45094941-31.75039277999997 126.45094941 148.17249727 240.63772695 293.84578008000005 380.20648291 293.84578008000005h248.16507188c140.21133838 0 253.75553349-146.50863926 253.75553349-325.59617286 0-19.14893614-11.75924619-34.24960723-26.66714239-34.24960722H153.11809268z"  horiz-adv-x="1024" />

    
    <glyph glyph-name="Lock" unicode="&#59005;" d="M226.60571469 441.6C157.07428531 441.6 100.57142844 386.74285689 100.57142844 319.40571468999997v-293.21142938C100.57142844-41.21142843999996 157.07428531-96 226.60571469-96h554.33142844c69.53142844 0 126.03428531 54.85714313 126.03428531 122.19428531V319.40571468999997c0 67.40571469-56.50285687 122.19428531-126.03428531 122.19428531H226.53714313zM503.77142844 864c157.02857156 0 249.6-133.02857156 249.6-264 0 0-0.68571469-59.52-48.82285688-59.52-48.20571469 0-51.01714313 59.52-51.01714312 59.52 0 101.89714311-67.2 158.4-149.76 158.4-82.56 0-149.76-56.50285687-149.76-158.4v-158.4H254.17142844V600C254.17142844 730.97142844 346.74285687 864 503.77142844 864z m19.2-537.6c-42.30857156 0-76.8-36.20571469-76.8-80.64 0-23.72571469 10.01142844-44.91428531 25.57714312-59.65714313v-74.74285687c0-29.62285689 22.97142844-53.76 51.22285688-53.76s51.22285689 24.13714313 51.22285687 53.76v74.74285687c15.56571469 14.74285687 25.57714311 35.93142844 25.57714313 59.65714313 0 44.43428531-34.49142844 80.64-76.8 80.64z"  horiz-adv-x="1024" />

    
    <glyph glyph-name="xingzhuang" unicode="&#59006;" d="M834.32857168 834H189.67142832A128.05714248 128.05714248 0 0 1 62 706.32857168v-515.95714335C62 120.04285751999998 119.47142832 62.571428319999995 189.67142832 62.571428319999995H383.42857168l83.12142832-83.12142832a64.28571416 64.28571416 0 0 1 90.9 0L640.57142832 62.571428319999995h193.75714335A128.05714248 128.05714248 0 0 1 962 190.24285752000003V706.32857168A128.05714248 128.05714248 0 0 1 834.32857168 834zM190.57142832 384h450v-64.28571416H190.57142832V384z m642.85714336 64.28571416H190.57142832V512.57142832h642.85714336v-64.28571416z m0 128.57142832H190.57142832V641.14285752h642.85714336v-64.28571504z"  horiz-adv-x="1024" />

    
    <glyph glyph-name="bangzhu" unicode="&#59007;" d="M512-66A450 450 0 1 0 512 834a450 450 0 0 0 0-900z m0 100.0000002A349.9999998 349.9999998 0 1 1 512 733.9999998000001a349.9999998 349.9999998 0 0 1 0-699.9999996zM461.9999999 436.0999998c0 24.54999961 22.39999981 44.4999999 50.0000001 44.49999991s50.0000001-19.95000029 50.0000001-44.49999991v-311.09999941c0-24.50000039-22.39999981-44.44999981-50.0000001-44.45000068s-50.0000001 19.90000019-50.0000001 44.45000068V436.0999998zM512 534.00000029a50.0000001 50.0000001 0 1 0 0 99.99999932 50.0000001 50.0000001 0 0 0 0-99.99999932z"  horiz-adv-x="1024" />

    
    <glyph glyph-name="chakanxiangqing" unicode="&#59008;" d="M447.195429 17.846857H145.627429a33.645714 33.645714 0 0 0-33.572572 33.499429V788.6262859999999c0 18.797714 14.774857 33.499429 33.572572 33.499428h670.208a33.645714 33.645714 0 0 0 33.572571-33.499428v-301.641143a33.499429 33.499429 0 0 1 66.998857 0V822.125714a67.291429 67.291429 0 0 1-66.998857 67.072H112.128a67.218286 67.218286 0 0 1-67.072-67.072v-804.278857c0-36.864 30.134857-67.072 66.998857-67.072h335.140572a33.499429 33.499429 0 1 1 0 67.072z m470.016-27.062857l-87.04 87.113143c-6.802286 6.729143-13.458286 6.729143-20.187429 6.729143-20.114286 0-33.499429-13.458286-33.499429-33.572572 0-6.656 0-13.385143 6.729143-20.041143l87.04-87.186285c6.802286-6.656 13.458286-13.385143 26.843429-13.385143 20.114286 0 33.572571 13.385143 33.572571 33.499428 0 6.729143-6.729143 20.114286-13.458285 26.843429zM676.571429 384a201.142857 201.142857 0 1 1 0-402.139429A201.142857 201.142857 0 0 1 676.571429 384z m0-335.140571a134.070857 134.070857 0 1 0-6.144 268.068571 134.070857 134.070857 0 0 0 6.070857-268.068571z m78.628571 560.713142H217.892571a33.060571 33.060571 0 0 0-32.914285 32.914286V643.657143c0 18.212571 14.774857 32.987429 32.914285 32.987428h537.307429c18.139429 0 32.914286-14.774857 32.914286-32.914285v-1.097143c0-18.139429-14.848-32.987429-32.914286-32.987429z m-2.194286-134.070857H215.917714A33.060571 33.060571 0 0 0 182.857143 508.342857v1.097143c0 18.212571 14.848 32.987429 32.914286 32.987429h537.380571c18.139429 0 32.914286-14.774857 32.914286-32.914286v-1.097143c0-18.139429-14.848-32.987429-32.987429-32.987429zM419.766857 341.796571H217.6a33.060571 33.060571 0 0 0-32.987429 32.914286v1.097143c0 18.212571 14.774857 32.987429 32.914286 32.987429h202.166857c18.139429 0 32.914286-14.774857 32.914286-32.914286v-1.097143c0-18.285714-14.774857-32.914286-32.914286-32.987429z"  horiz-adv-x="1024" />

    
    <glyph glyph-name="xingzhuang1" unicode="&#59009;" d="M1088.44373331-162.1333333299999H238.93333331c-58.70933333 0-106.22293333 48.87893333-106.22293333 109.22666666v124.79146667c0 25.94133333 20.48 46.83093333 45.53386667 46.83093333 25.12213333 0 45.53386667-20.8896 45.53386666-46.83093333V-52.90666667000005c0-8.6016 6.82666667-15.5648 15.1552-15.5648h849.5104a15.36 15.36 0 0 1 15.22346667 15.5648v124.79146667c0 25.94133333 20.34346667 46.83093333 45.4656 46.83093333 25.12213333 0 45.53386667-20.8896 45.53386667-46.83093333V-52.90666667000005c0-60.34773333-47.5136-109.22666667-106.22293334-109.22666666zM663.68853331 849.92c12.15146667 0 23.89333333-4.98346667 32.42666667-13.9264 8.53333333-8.87466667 13.24373333-20.95786667 13.1072-33.45066667v-624.16213333a46.21653333 46.21653333 0 0 0-45.53386667-46.83093333 46.14826667 46.14826667 0 0 0-45.4656 46.83093333V802.47466667a47.5136 47.5136 0 0 0 13.1072 33.45066666 44.91946667 44.91946667 0 0 0 32.3584 13.99466667z m0 80.21333333a45.19253333 45.19253333 0 0 0 32.1536-13.7216l303.44533334-312.04693333a47.17226667 47.17226667 0 0 0 0-66.21866667 44.91946667 44.91946667 0 0 0-64.3072 0L631.46666665 850.26133333a47.17226667 47.17226667 0 0 0 0 66.1504A45.19253333 45.19253333 0 0 0 663.68853331 930.13333333z m0 0a45.19253333 45.19253333 0 0 0 32.1536-13.7216 47.17226667 47.17226667 0 0 0 0-66.21866666L392.53333331 538.28266667a44.91946667 44.91946667 0 0 0-64.3072 0 47.17226667 47.17226667 0 0 0 0 66.08213333L631.46666665 916.48A45.19253333 45.19253333 0 0 0 663.68853331 930.13333333z"  horiz-adv-x="1280" />

    
    <glyph glyph-name="bangzhuzhongxin" unicode="&#59010;" d="M512-96a480 480 0 1 0 0 960 480 480 0 0 0 0-960z m0 64a416 416 0 1 1 0 832 416 416 0 0 1 0-832zM448 384a64 64 0 1 0 128 0v-192a64 64 0 0 0-128 0V384z m64 128a64 64 0 1 0 0 128 64 64 0 0 0 0-128z"  horiz-adv-x="1024" />

    
    <glyph glyph-name="yonghuzhongxin" unicode="&#59011;" d="M546.133333 385.092267a238.933333 238.933333 0 1 0 0 477.866666 238.933333 238.933333 0 0 0 0-477.866666z m0 68.266666a170.666667 170.666667 0 1 1 0 341.333334 170.666667 170.666667 0 0 1 0-341.333334zM102.4-128h-68.266667v175.5136C34.133333 196.949333 172.714667 315.733333 341.333333 315.733333h409.6c168.618667 0 307.2-118.784 307.2-268.219733V-128h-68.266666v175.5136c0 109.226667-105.8816 199.953067-238.933334 199.953067H341.333333c-133.051733 0-238.933333-90.794667-238.933333-199.953067V-128z"  horiz-adv-x="1092" />

    
    <glyph glyph-name="daochu" unicode="&#59012;" d="M849.5-37.875H174.5C128.09375-37.875 90.125 0.09375 90.125 46.5V721.5C90.125 767.90625 128.09375 805.875 174.5 805.875h210.9375c25.3125 0 42.1875-16.875 42.1875-42.1875 0-25.3125-16.875-42.1875-42.1875-42.1875H216.6875c-25.3125 0-42.1875-16.875-42.1875-42.1875v-590.625c0-25.3125 16.875-42.1875 42.1875-42.1875h590.625c25.3125 0 42.1875 16.875 42.1875 42.1875v168.75c0 25.3125 16.875 42.1875 42.1875 42.1875 25.3125 0 42.1875-16.875 42.1875-42.1875v-210.9375c0-46.40625-37.96875-84.375-84.375-84.375zM545.75 476.8125L845.28125 776.34375c16.875 16.875 42.1875 16.875 59.0625 0 16.875-16.875 16.875-42.1875 0-59.0625L604.8125 417.75c-16.875-16.875-42.1875-16.875-59.0625 0-16.875 12.65625-16.875 42.1875 0 59.0625zM722.9375 805.875h168.75c25.3125 0 42.1875-16.875 42.1875-42.1875 0-25.3125-16.875-42.1875-42.1875-42.1875H722.9375c-25.3125 0-42.1875 16.875-42.1875 42.1875 0 25.3125 16.875 42.1875 42.1875 42.1875z m168.75 0c25.3125 0 42.1875-16.875 42.1875-42.1875V594.9375c0-25.3125-16.875-42.1875-42.1875-42.1875-25.3125 0-42.1875 16.875-42.1875 42.1875V763.6875c0 25.3125 16.875 42.1875 42.1875 42.1875z"  horiz-adv-x="1024" />

    


  </font>
</defs>
</svg>
